<mxfile host="app.diagrams.net" modified="2020-10-07T20:29:52.867Z" agent="5.0 (Macintosh; Intel Mac OS X 10_15_4) AppleWebKit/537.36 (KHTML, like Gecko) Chrome/85.0.4183.121 Safari/537.36" etag="Juxrer8dLPTckYMfmiqj" version="13.7.7" type="github">
  <diagram id="5SsMkW3yFWrEWpM0iQUE" name="Page-1">
    <mxGraphModel dx="1113" dy="695" grid="1" gridSize="10" guides="1" tooltips="1" connect="1" arrows="1" fold="1" page="1" pageScale="1" pageWidth="827" pageHeight="1169" math="0" shadow="0">
      <root>
        <mxCell id="0" />
        <mxCell id="1" parent="0" />
        <mxCell id="4eGuR8GMevfrFRhhWvSk-20" value="" style="group" vertex="1" connectable="0" parent="1">
          <mxGeometry x="110" y="100" width="520" height="520" as="geometry" />
        </mxCell>
        <mxCell id="4eGuR8GMevfrFRhhWvSk-1" value="&lt;font style=&quot;font-size: 16px&quot;&gt;Dataset&lt;/font&gt;" style="shape=cylinder3;whiteSpace=wrap;html=1;boundedLbl=1;backgroundOutline=1;size=15;" vertex="1" parent="4eGuR8GMevfrFRhhWvSk-20">
          <mxGeometry y="150" width="100" height="180" as="geometry" />
        </mxCell>
        <mxCell id="4eGuR8GMevfrFRhhWvSk-2" value="" style="rounded=0;whiteSpace=wrap;html=1;" vertex="1" parent="4eGuR8GMevfrFRhhWvSk-20">
          <mxGeometry x="270" width="250" height="440" as="geometry" />
        </mxCell>
        <mxCell id="4eGuR8GMevfrFRhhWvSk-3" value="" style="endArrow=classic;html=1;exitX=1;exitY=0;exitDx=0;exitDy=65;exitPerimeter=0;" edge="1" parent="4eGuR8GMevfrFRhhWvSk-20" source="4eGuR8GMevfrFRhhWvSk-1" target="4eGuR8GMevfrFRhhWvSk-2">
          <mxGeometry width="50" height="50" relative="1" as="geometry">
            <mxPoint x="143" y="210" as="sourcePoint" />
            <mxPoint x="330" y="180" as="targetPoint" />
          </mxGeometry>
        </mxCell>
        <mxCell id="4eGuR8GMevfrFRhhWvSk-4" value="Training Data" style="text;html=1;align=center;verticalAlign=middle;resizable=0;points=[];autosize=1;" vertex="1" parent="4eGuR8GMevfrFRhhWvSk-20">
          <mxGeometry x="135" y="190" width="90" height="20" as="geometry" />
        </mxCell>
        <mxCell id="4eGuR8GMevfrFRhhWvSk-5" value="" style="endArrow=classic;html=1;exitX=1;exitY=0;exitDx=0;exitDy=65;exitPerimeter=0;" edge="1" parent="4eGuR8GMevfrFRhhWvSk-20">
          <mxGeometry width="50" height="50" relative="1" as="geometry">
            <mxPoint x="100" y="265" as="sourcePoint" />
            <mxPoint x="270" y="268.0035335689046" as="targetPoint" />
          </mxGeometry>
        </mxCell>
        <mxCell id="4eGuR8GMevfrFRhhWvSk-6" value="Testing Data" style="text;html=1;align=center;verticalAlign=middle;resizable=0;points=[];autosize=1;" vertex="1" parent="4eGuR8GMevfrFRhhWvSk-20">
          <mxGeometry x="140" y="270" width="80" height="20" as="geometry" />
        </mxCell>
        <mxCell id="4eGuR8GMevfrFRhhWvSk-7" value="Evaluation" style="rounded=0;whiteSpace=wrap;html=1;" vertex="1" parent="4eGuR8GMevfrFRhhWvSk-20">
          <mxGeometry x="290" y="360" width="210" height="50" as="geometry" />
        </mxCell>
        <mxCell id="4eGuR8GMevfrFRhhWvSk-8" value="Preprocessing" style="rounded=0;whiteSpace=wrap;html=1;" vertex="1" parent="4eGuR8GMevfrFRhhWvSk-20">
          <mxGeometry x="290" y="20" width="210" height="50" as="geometry" />
        </mxCell>
        <mxCell id="4eGuR8GMevfrFRhhWvSk-9" value="Classification Algorithm" style="rounded=0;whiteSpace=wrap;html=1;" vertex="1" parent="4eGuR8GMevfrFRhhWvSk-20">
          <mxGeometry x="290" y="91" width="210" height="50" as="geometry" />
        </mxCell>
        <mxCell id="4eGuR8GMevfrFRhhWvSk-17" style="edgeStyle=orthogonalEdgeStyle;rounded=0;orthogonalLoop=1;jettySize=auto;html=1;entryX=0.5;entryY=0;entryDx=0;entryDy=0;" edge="1" parent="4eGuR8GMevfrFRhhWvSk-20" source="4eGuR8GMevfrFRhhWvSk-8" target="4eGuR8GMevfrFRhhWvSk-9">
          <mxGeometry relative="1" as="geometry" />
        </mxCell>
        <mxCell id="4eGuR8GMevfrFRhhWvSk-14" value="" style="edgeStyle=orthogonalEdgeStyle;rounded=0;orthogonalLoop=1;jettySize=auto;html=1;" edge="1" parent="4eGuR8GMevfrFRhhWvSk-20" source="4eGuR8GMevfrFRhhWvSk-10" target="4eGuR8GMevfrFRhhWvSk-7">
          <mxGeometry relative="1" as="geometry" />
        </mxCell>
        <mxCell id="4eGuR8GMevfrFRhhWvSk-10" value="" style="rounded=0;whiteSpace=wrap;html=1;" vertex="1" parent="4eGuR8GMevfrFRhhWvSk-20">
          <mxGeometry x="290" y="160" width="210" height="160" as="geometry" />
        </mxCell>
        <mxCell id="4eGuR8GMevfrFRhhWvSk-18" value="" style="edgeStyle=orthogonalEdgeStyle;rounded=0;orthogonalLoop=1;jettySize=auto;html=1;" edge="1" parent="4eGuR8GMevfrFRhhWvSk-20" source="4eGuR8GMevfrFRhhWvSk-9" target="4eGuR8GMevfrFRhhWvSk-10">
          <mxGeometry relative="1" as="geometry" />
        </mxCell>
        <mxCell id="4eGuR8GMevfrFRhhWvSk-11" value="Classification Model" style="rounded=0;whiteSpace=wrap;html=1;" vertex="1" parent="4eGuR8GMevfrFRhhWvSk-20">
          <mxGeometry x="304" y="175" width="176" height="50" as="geometry" />
        </mxCell>
        <mxCell id="4eGuR8GMevfrFRhhWvSk-12" value="Model Test" style="rounded=0;whiteSpace=wrap;html=1;" vertex="1" parent="4eGuR8GMevfrFRhhWvSk-20">
          <mxGeometry x="304" y="255" width="176" height="50" as="geometry" />
        </mxCell>
        <mxCell id="4eGuR8GMevfrFRhhWvSk-19" value="" style="edgeStyle=orthogonalEdgeStyle;rounded=0;orthogonalLoop=1;jettySize=auto;html=1;" edge="1" parent="4eGuR8GMevfrFRhhWvSk-20" source="4eGuR8GMevfrFRhhWvSk-11" target="4eGuR8GMevfrFRhhWvSk-12">
          <mxGeometry relative="1" as="geometry" />
        </mxCell>
        <mxCell id="4eGuR8GMevfrFRhhWvSk-13" value="Model Deployment" style="rounded=0;whiteSpace=wrap;html=1;" vertex="1" parent="4eGuR8GMevfrFRhhWvSk-20">
          <mxGeometry x="270" y="470" width="250" height="50" as="geometry" />
        </mxCell>
        <mxCell id="4eGuR8GMevfrFRhhWvSk-15" value="" style="edgeStyle=orthogonalEdgeStyle;rounded=0;orthogonalLoop=1;jettySize=auto;html=1;" edge="1" parent="4eGuR8GMevfrFRhhWvSk-20" source="4eGuR8GMevfrFRhhWvSk-2" target="4eGuR8GMevfrFRhhWvSk-13">
          <mxGeometry relative="1" as="geometry" />
        </mxCell>
      </root>
    </mxGraphModel>
  </diagram>
</mxfile>
